<?xml version="1.0" standalone="no"?>
<!DOCTYPE svg PUBLIC "-//W3C//DTD SVG 20010904//EN"
 "http://www.w3.org/TR/2001/REC-SVG-20010904/DTD/svg10.dtd">
<svg version="1.0" xmlns="http://www.w3.org/2000/svg"
 width="600.000000pt" height="600.000000pt" viewBox="0 0 600.000000 600.000000"
 preserveAspectRatio="xMidYMid meet">
<metadata>
Created by potrace 1.14, written by Peter Selinger 2001-2017
</metadata>
<g transform="translate(0.000000,600.000000) scale(0.100000,-0.100000)"
fill="#000000" stroke="none">
<path d="M1145 5359 c-102 -24 -165 -44 -225 -71 -67 -31 -172 -96 -178 -110
-2 -4 -8 -8 -13 -8 -15 0 -174 -162 -205 -210 -62 -94 -131 -226 -157 -300
-81 -234 -64 -553 39 -750 13 -25 24 -49 24 -54 0 -5 11 -24 25 -42 14 -18 25
-39 25 -47 0 -8 7 -21 16 -28 9 -8 28 -31 42 -53 64 -102 378 -406 418 -406 4
0 22 -11 40 -25 18 -14 37 -25 43 -25 6 0 11 -4 11 -8 0 -5 24 -21 53 -35 28
-15 63 -33 77 -40 65 -35 127 -65 150 -72 14 -4 43 -15 65 -25 76 -33 170 -62
282 -85 61 -13 129 -29 150 -34 21 -6 111 -11 199 -11 206 0 207 1 212 122 2
52 -2 108 -12 151 -9 38 -16 78 -16 90 0 12 -7 31 -15 41 -13 17 -26 19 -120
17 -157 -4 -414 33 -431 61 -3 4 -20 8 -38 8 -18 0 -55 11 -82 25 -27 14 -54
25 -61 25 -15 0 -174 81 -191 97 -7 7 -20 13 -28 13 -8 0 -14 5 -14 10 0 6 -5
10 -11 10 -34 0 -241 181 -304 265 -17 22 -32 42 -35 45 -19 19 -94 170 -108
220 -6 19 -17 55 -24 80 -19 65 -15 250 7 325 25 85 80 185 129 236 46 49 134
119 149 119 5 0 23 6 40 14 101 46 267 48 372 5 11 -4 38 -15 59 -24 98 -39
300 -204 363 -295 9 -14 20 -27 24 -30 10 -8 139 -189 139 -196 0 -3 20 -39
45 -78 25 -40 50 -88 57 -107 6 -19 14 -36 18 -39 3 -3 14 -23 24 -45 10 -22
28 -61 42 -86 13 -26 24 -58 24 -72 0 -14 3 -27 8 -29 11 -5 42 -76 42 -98 0
-10 9 -40 21 -67 12 -26 25 -70 29 -98 5 -27 16 -70 25 -95 9 -25 21 -72 26
-105 4 -33 17 -110 28 -170 35 -203 36 -640 1 -810 -6 -27 -16 -86 -24 -130
-7 -44 -21 -100 -31 -125 -9 -25 -20 -63 -24 -85 -4 -22 -17 -62 -29 -89 -12
-27 -22 -55 -22 -62 0 -8 -11 -35 -24 -61 -13 -27 -39 -79 -57 -118 -36 -75
-94 -171 -116 -193 -7 -7 -13 -18 -13 -23 0 -31 -207 -243 -300 -306 -30 -21
-57 -40 -60 -44 -11 -13 -148 -79 -200 -95 -64 -21 -268 -26 -291 -8 -8 6 -27
14 -43 18 -36 9 -135 77 -136 94 0 6 -4 12 -10 12 -14 0 -70 101 -70 125 0 12
-6 27 -12 33 -17 17 -16 155 1 212 7 25 32 83 54 129 34 68 60 103 132 175 90
91 234 195 345 249 117 57 193 87 219 87 15 0 31 4 36 9 24 22 134 42 267 48
79 3 150 9 159 14 20 10 32 59 54 204 9 61 19 118 21 127 10 35 -28 55 -117
62 -77 6 -139 2 -334 -23 -66 -8 -236 -51 -280 -71 -56 -25 -99 -40 -116 -40
-11 0 -19 -3 -19 -7 0 -5 -21 -16 -48 -26 -65 -26 -250 -122 -262 -136 -3 -4
-36 -27 -75 -51 -89 -57 -118 -82 -235 -200 -78 -78 -180 -207 -180 -226 0 -3
-10 -21 -23 -42 -13 -20 -29 -57 -37 -82 -7 -25 -19 -56 -26 -70 -23 -48 -36
-227 -24 -325 14 -108 76 -292 103 -303 4 -2 7 -9 7 -16 0 -12 9 -24 87 -122
41 -50 166 -159 211 -183 11 -6 26 -17 34 -23 15 -15 102 -57 168 -83 25 -10
54 -21 65 -26 44 -19 226 -29 319 -18 101 12 231 51 288 86 21 13 47 23 58 23
11 0 20 4 20 8 0 4 27 24 60 43 33 18 60 37 60 42 0 4 5 7 11 7 6 0 24 14 41
30 17 17 46 42 65 57 44 34 124 114 198 199 33 38 66 75 73 83 13 13 52 70 77
110 6 9 20 31 33 48 12 17 22 35 22 41 0 5 11 21 25 36 14 15 25 32 26 39 0 7
9 26 20 42 10 17 23 41 29 55 5 14 15 33 20 42 19 33 28 53 70 143 22 50 46
98 51 109 6 10 17 44 25 75 8 31 22 66 30 78 7 12 14 31 14 41 0 11 10 53 23
93 13 41 31 117 41 169 9 52 21 111 26 130 55 218 44 820 -19 1068 -12 46 -21
96 -21 111 0 15 -4 31 -9 37 -4 5 -16 34 -25 64 -38 119 -71 212 -96 266 -11
23 -22 54 -26 68 -3 14 -10 26 -15 26 -5 0 -9 6 -9 14 0 14 -80 174 -135 271
-16 28 -33 59 -39 70 -6 11 -17 27 -24 35 -22 26 -82 119 -82 127 0 5 -10 19
-23 33 -12 14 -31 38 -41 55 -21 32 -28 40 -68 86 -16 17 -28 34 -28 38 0 4
-53 61 -117 127 -120 122 -213 204 -232 204 -6 0 -11 4 -11 9 0 4 -29 23 -65
42 -36 18 -65 37 -65 41 0 4 -7 8 -15 8 -8 0 -38 11 -67 24 -52 24 -118 43
-226 65 -64 13 -211 13 -267 0z"/>
<path d="M4550 5334 c-25 -7 -55 -13 -67 -13 -12 -1 -48 -12 -79 -26 -31 -14
-65 -25 -75 -25 -11 0 -19 -4 -19 -8 0 -5 -19 -18 -42 -28 -119 -53 -286 -190
-423 -348 -27 -31 -62 -71 -77 -88 -16 -18 -28 -35 -28 -39 0 -5 -10 -18 -22
-31 -20 -20 -102 -135 -133 -187 -5 -9 -20 -30 -32 -48 -13 -17 -23 -36 -23
-42 0 -5 -10 -22 -23 -38 -13 -15 -31 -47 -41 -70 -11 -24 -23 -43 -28 -43 -4
0 -8 -7 -8 -15 0 -9 -11 -33 -25 -55 -14 -22 -25 -43 -25 -46 0 -4 -11 -30
-24 -58 -60 -128 -86 -189 -86 -202 0 -8 -4 -22 -9 -32 -25 -48 -92 -259 -91
-289 0 -12 -5 -34 -11 -50 -34 -90 -58 -301 -65 -563 -4 -166 -1 -238 15 -375
22 -192 51 -342 87 -460 13 -44 24 -85 24 -91 0 -6 11 -37 25 -68 14 -31 25
-67 25 -80 0 -13 6 -29 13 -35 8 -6 19 -29 26 -50 6 -22 25 -65 41 -96 17 -32
30 -63 30 -70 0 -7 4 -15 9 -17 5 -1 20 -25 34 -53 35 -72 89 -169 96 -175 3
-3 15 -22 25 -42 11 -21 23 -38 28 -38 4 0 8 -5 8 -11 0 -9 76 -115 135 -189
51 -63 287 -290 302 -290 5 0 20 -10 33 -22 14 -13 41 -32 60 -42 19 -11 37
-22 40 -25 9 -10 104 -58 130 -66 14 -4 43 -15 65 -25 62 -27 192 -50 285 -50
87 0 270 29 270 42 0 4 7 8 16 8 15 0 94 37 169 80 36 20 101 67 131 95 6 5
26 24 45 41 78 71 139 151 188 247 46 91 66 158 82 274 28 203 -40 435 -181
619 -50 65 -167 185 -220 225 -25 18 -52 41 -61 51 -9 10 -19 18 -23 18 -4 0
-23 12 -42 26 -41 31 -88 60 -126 77 -16 6 -28 14 -28 18 0 4 -11 10 -25 13
-14 4 -25 11 -25 16 0 6 -7 10 -14 10 -8 0 -36 11 -62 25 -60 32 -241 105
-260 105 -8 0 -22 4 -32 9 -9 6 -75 24 -146 41 -116 29 -144 32 -295 33 -91 0
-181 -3 -200 -7 l-33 -8 5 -67 c9 -128 37 -270 59 -298 7 -9 42 -13 109 -13
90 0 184 -13 284 -41 77 -21 140 -42 150 -50 5 -5 16 -9 25 -9 14 0 106 -45
213 -103 153 -84 322 -248 393 -382 112 -208 54 -474 -123 -565 -26 -14 -50
-28 -53 -31 -30 -36 -293 -35 -375 1 -53 23 -112 52 -130 63 -66 39 -135 89
-135 98 0 5 -5 9 -11 9 -11 0 -49 33 -107 94 -20 22 -49 52 -64 68 -16 15 -28
30 -28 33 0 3 -11 18 -25 33 -14 15 -25 31 -25 37 0 5 -12 21 -25 34 -14 13
-25 29 -25 36 0 8 -6 20 -14 27 -7 8 -24 36 -38 63 -13 28 -32 64 -41 80 -65
122 -145 362 -173 525 -8 41 -20 110 -28 153 -31 165 -29 533 3 752 29 198 41
263 60 323 11 37 27 94 37 127 9 33 20 64 25 70 5 5 9 19 9 32 0 13 11 46 25
75 14 28 25 57 25 65 0 16 33 87 43 91 4 2 7 14 7 27 0 13 6 30 13 37 6 7 18
27 25 43 30 66 90 176 108 196 8 8 14 19 14 24 0 4 11 23 25 41 14 18 25 36
25 41 0 4 11 20 25 35 14 15 25 30 25 34 0 8 119 143 166 189 79 77 184 155
208 155 8 0 18 4 21 10 7 12 55 33 125 56 74 24 225 23 300 -2 200 -65 332
-234 371 -474 10 -61 4 -183 -12 -245 -22 -85 -43 -145 -51 -145 -4 0 -8 -7
-8 -15 0 -17 -28 -76 -39 -85 -4 -3 -17 -22 -30 -42 -12 -21 -27 -38 -32 -38
-5 0 -9 -5 -9 -11 0 -6 -6 -16 -12 -23 -7 -7 -29 -31 -49 -52 -41 -45 -96 -94
-104 -94 -3 0 -16 -10 -28 -23 -54 -56 -388 -237 -438 -237 -11 0 -34 -7 -50
-16 -68 -34 -257 -66 -423 -70 -97 -2 -163 -7 -170 -14 -28 -28 -56 -295 -37
-352 14 -44 31 -48 180 -48 153 0 318 17 386 39 33 10 79 22 102 26 24 4 45
11 49 16 3 5 16 9 29 9 13 0 26 4 29 9 3 4 19 11 34 14 32 6 121 44 193 83 26
13 54 24 63 24 9 0 16 4 16 9 0 5 17 17 38 28 48 25 178 109 219 142 123 101
206 180 290 276 65 75 97 119 124 172 11 23 27 47 35 54 8 6 14 18 14 26 0 7
10 33 22 56 12 23 35 80 52 127 30 84 30 87 31 296 0 135 -4 220 -11 235 -18
38 -44 122 -44 141 0 9 -3 18 -7 20 -11 4 -43 67 -43 84 0 8 -3 14 -8 14 -4 0
-16 17 -27 38 -11 20 -30 51 -42 68 -13 17 -23 35 -23 40 0 16 -154 169 -205
204 -27 19 -56 40 -62 46 -7 7 -31 20 -53 30 -22 10 -40 21 -40 26 0 4 -7 8
-15 8 -8 0 -38 11 -67 24 -112 51 -367 72 -478 40z"/>
</g>
</svg>
